<svg width="12" height="12" viewBox="0 0 12 12" fill="none" xmlns="http://www.w3.org/2000/svg">
<path d="M6.1942 0C2.98888 0 0.390625 2.59826 0.390625 5.80357C0.390625 9.00888 2.98888 11.6071 6.1942 11.6071C9.39951 11.6071 11.9978 9.00888 11.9978 5.80357C11.9978 2.59826 9.39951 0 6.1942 0ZM6.1942 0.840937C7.4585 0.840937 8.61255 1.31393 9.48888 2.09219C8.84498 2.94154 7.86679 3.5071 6.88656 3.88984C6.33167 2.87925 5.70978 1.90692 5.02507 0.979353C5.40801 0.887047 5.80057 0.840582 6.19449 0.840937H6.1942ZM4.08286 1.31103C4.72996 2.27906 5.35674 3.17658 5.92926 4.1925C4.48127 4.5677 2.84496 4.79288 1.33342 4.79665C1.65203 3.25058 2.69058 1.96683 4.08286 1.31132V1.31103ZM10.0394 2.66616C10.7565 3.54249 11.1509 4.63846 11.1568 5.77078C10.0089 5.54444 8.86732 5.48525 7.70487 5.60248C7.57429 5.27661 7.41585 4.96699 7.26408 4.63328C8.26607 4.22906 9.33741 3.53728 10.0394 2.66587V2.66616ZM6.33232 4.96031C6.45652 5.22437 6.60045 5.50469 6.73567 5.79109C5.11937 6.50377 3.40007 7.45614 2.50777 9.12583C1.65116 8.17789 1.19465 6.93523 1.23388 5.65819C2.9648 5.65007 4.66379 5.43359 6.33232 4.96031ZM8.95496 6.31342C9.67715 6.31357 10.3964 6.40621 11.095 6.58909C10.9873 7.26121 10.7424 7.90398 10.3757 8.47742C10.0089 9.05086 9.52807 9.54271 8.96308 9.92237C8.6967 8.71087 8.44279 7.55161 7.99388 6.38277C8.31204 6.33641 8.63314 6.31313 8.95467 6.31313L8.95496 6.31342ZM11.1208 6.40337C11.1174 6.43181 11.1142 6.45967 11.1101 6.48752C11.1142 6.45937 11.1177 6.43152 11.1208 6.40337ZM7.07576 6.6094C7.53308 7.79129 7.89203 9.1 8.13288 10.3736C7.51979 10.6337 6.86048 10.7674 6.19449 10.7665C5.09118 10.7681 4.0191 10.4003 3.14906 9.72185C4.04775 8.264 5.43973 7.16074 7.07547 6.60969L7.07576 6.6094Z" fill="white"/>
</svg>
