<svg width="13" height="12" viewBox="0 0 13 12" fill="none" xmlns="http://www.w3.org/2000/svg">
<path d="M11.1604 0H2.0405C1.71067 0 1.39435 0.131024 1.16112 0.364249C0.927899 0.597473 0.796875 0.913793 0.796875 1.24362L0.796875 10.3635C0.796875 10.6933 0.927899 11.0097 1.16112 11.2429C1.39435 11.4761 1.71067 11.6071 2.0405 11.6071H5.59648V7.66097H3.96423V5.80357H5.59648V4.38791C5.59648 2.77768 6.55511 1.88823 8.02336 1.88823C8.72652 1.88823 9.46181 2.01363 9.46181 2.01363V3.59407H8.65165C7.8534 3.59407 7.60441 4.08944 7.60441 4.59752V5.80357H9.38642L9.10142 7.66097H7.60441V11.6071H11.1604C11.4902 11.6071 11.8065 11.4761 12.0398 11.2429C12.273 11.0097 12.404 10.6933 12.404 10.3635V1.24362C12.404 0.913793 12.273 0.597473 12.0398 0.364249C11.8065 0.131024 11.4902 0 11.1604 0Z" fill="white"/>
</svg>
