<svg width="12" height="12" viewBox="0 0 12 12" fill="none" xmlns="http://www.w3.org/2000/svg">
<path d="M5.80487 2.82765C4.15799 2.82765 2.8296 4.15632 2.8296 5.80357C2.8296 7.45082 4.15799 8.7795 5.80487 8.7795C7.45175 8.7795 8.78013 7.45082 8.78013 5.80357C8.78013 4.15632 7.45175 2.82765 5.80487 2.82765ZM5.80487 7.73831C4.74061 7.73831 3.87056 6.87066 3.87056 5.80357C3.87056 4.73649 4.73802 3.86883 5.80487 3.86883C6.87171 3.86883 7.73917 4.73649 7.73917 5.80357C7.73917 6.87066 6.86912 7.73831 5.80487 7.73831ZM9.5958 2.70592C9.5958 3.09183 9.28507 3.40004 8.90183 3.40004C8.516 3.40004 8.20786 3.08924 8.20786 2.70592C8.20786 2.32259 8.51859 2.01179 8.90183 2.01179C9.28507 2.01179 9.5958 2.32259 9.5958 2.70592ZM11.5664 3.4104C11.5223 2.48058 11.31 1.65696 10.629 0.978377C9.95055 0.299794 9.12711 0.0874129 8.1975 0.0407927C7.23941 -0.0135976 4.36773 -0.0135976 3.40964 0.0407927C2.48262 0.0848229 1.65918 0.297204 0.978159 0.975787C0.297138 1.65437 0.0873934 2.47799 0.0407836 3.40781C-0.0135945 4.36611 -0.0135945 7.23844 0.0407836 8.19674C0.084804 9.12656 0.297138 9.95018 0.978159 10.6288C1.65918 11.3073 2.48003 11.5197 3.40964 11.5663C4.36773 11.6207 7.23941 11.6207 8.1975 11.5663C9.12711 11.5223 9.95055 11.3099 10.629 10.6288C11.3074 9.95018 11.5197 9.12656 11.5664 8.19674C11.6207 7.23844 11.6207 4.3687 11.5664 3.4104ZM10.3286 9.22498C10.1266 9.73262 9.73563 10.1237 9.22551 10.3283C8.46163 10.6314 6.64902 10.5614 5.80487 10.5614C4.96071 10.5614 3.14552 10.6288 2.38422 10.3283C1.87669 10.1263 1.48569 9.73521 1.28112 9.22498C0.978159 8.46092 1.04807 6.64792 1.04807 5.80357C1.04807 4.95923 0.980749 3.14363 1.28112 2.38216C1.4831 1.87452 1.8741 1.48343 2.38422 1.27882C3.14811 0.975787 4.96071 1.04572 5.80487 1.04572C6.64902 1.04572 8.46422 0.978377 9.22551 1.27882C9.73304 1.48084 10.124 1.87193 10.3286 2.38216C10.6316 3.14622 10.5617 4.95923 10.5617 5.80357C10.5617 6.64792 10.6316 8.46351 10.3286 9.22498Z" fill="white"/>
</svg>
